# xmcd
#
# Track frame offsets: 
#        150
#        21925
#        41857
#        55159
#        79396
#        96364
#        116316
#        136983
#        155867
#        171619
#        198372
#        218164
#        234921
#        248584
#        270082
#        290338
#
# Disc length: 4146 seconds
#
# Revision: 0
# Processed by: cddbd v1.5.2PL0 Copyright (c) Steve Scherf et al.
# Submitted via: ExactAudioCopy v1.0b1
#
DISCID=e2103010
DTITLE=Various Artist - H2T - Thong Diep Hanh Phuc
DYEAR=2009
DGENRE=Pop
TTITLE0=Wanbi Tuan Anh and Toc Tien - Tinh Ca (Quoc Bao)
TTITLE1=Khoi Mi - Se Thuoc Ve Nhau (Dinh Vu)
TTITLE2=Minh Hang - Cho Co Quay Ve (Nhat Trung)
TTITLE3=A# - Tha Khong Yeu Nua (Trung Quan)
TTITLE4=Hoa Mi - Chu Tho Xanh Mau Ngoc Bich (Loi Viet: Thang Long)
TTITLE5=Song Yen - Hanh Phuc Xa Voi (Nhat Dang)
TTITLE6=Tra My - Chuyen (Anh Min)
TTITLE7=Noo Phuoc Thinh - Nam Hoc Cuoi (Bao Thach)
TTITLE8=Dong Nhi - Boi Roi (Dong Nhi)
TTITLE9=Luong Bich Huu - Tung Phut Binh Yen (Bich Huu)
TTITLE10=Thuy Top - De Mai Co Nhau (Hieu Minh)
TTITLE11=Phi Truong - Hanh Phuc Khi Mai Ben Nhau (Vu Duy Khanh)
TTITLE12=Thuy Tien - Tuyet Se Tan Vao Mua (Nhat Dang)
TTITLE13=Phuong Vy and Anh Khang - Mot Tinh Yeu (Hoang Anh)
TTITLE14=Duy Khoa - Loi Cam On (Nguyen Duc Cuong)
TTITLE15=Dai Nhan and Hoa Mi - My 2! (Nhac: Dai Nhan, Loi: Thang Long)
EXTD=
EXTT0=
EXTT1=
EXTT2=
EXTT3=
EXTT4=
EXTT5=
EXTT6=
EXTT7=
EXTT8=
EXTT9=
EXTT10=
EXTT11=
EXTT12=
EXTT13=
EXTT14=
EXTT15=
PLAYORDER=
